<svg xmlns="http://www.w3.org/2000/svg" xmlns:xlink="http://www.w3.org/1999/xlink" xmlns:serif="http://www.serif.com/" width="100%" height="100%" viewBox="0 0 1327 641" xml:space="preserve" style="fill-rule:evenodd;clip-rule:evenodd;stroke-linejoin:round;stroke-miterlimit:2;">    <g transform="matrix(1,0,0,1,-84.0521,0)">        <g id="Draft-Artifacts" serif:id="Draft Artifacts">        </g>        <g id="KrigerDanes-Mark" serif:id="KrigerDanes Mark" transform="matrix(0.228318,0,0,0.527202,83.6982,765.528)">            <rect x="1.55" y="-1452.06" width="5811.62" height="1214.2" style="fill:rgb(255,254,254);"></rect>            <g transform="matrix(2.28147,0,0,0.988048,-33027.8,-26210.7)">                <g transform="matrix(1,0,0,1,299,6763.52)">                    <g>                        <path d="M15141.1,18699.8L15276,18825.3L15288.2,18837C15290.8,18839.5 15293.3,18841.2 15295.9,18841.9C15298.4,18842.7 15302.7,18843.1 15308.6,18843.1L15308.6,18855.6C15297.8,18854.7 15288.3,18854.2 15280.1,18854.2C15271.6,18854.2 15262.2,18854.7 15252.1,18855.6L15115.8,18726.3C15111.2,18721.9 15108.3,18719.7 15107.3,18719.7C15104.5,18719.7 15103.1,18722.3 15103.1,18727.4L15103.1,18787.8C15103.1,18817.2 15103.7,18833.2 15104.9,18836C15106.9,18840.8 15114,18843.1 15126.3,18843.1L15141.1,18843.1L15141.1,18855.6C15119.6,18854.7 15100.6,18854.2 15084,18854.2C15066.5,18854.2 15047.8,18854.7 15027.8,18855.6L15027.8,18843.1L15043.8,18843.1C15054.4,18843.1 15060.7,18841.2 15062.8,18837.3C15064.9,18833.4 15066,18816.6 15066,18787L15066,18654.7C15066,18618.4 15064.9,18598 15062.8,18593.5C15060.7,18588.9 15054.4,18586.6 15043.8,18586.6L15027.8,18586.6L15027.8,18574.2C15051.9,18575.1 15069.4,18575.6 15080.2,18575.6C15088,18575.6 15108.3,18575.1 15141.1,18574.2L15141.1,18586.6L15125.5,18587.2C15116.5,18587.6 15110.8,18588.8 15108.5,18590.9C15106.1,18592.9 15104.6,18597 15104,18603C15103.4,18609.1 15103.1,18626.6 15103.1,18655.5L15103.1,18708.8L15105.9,18708.8C15116.7,18700 15126,18691.9 15133.8,18684.6C15141.6,18677.3 15154.4,18664.5 15172.2,18646.2L15228.3,18588L15228.3,18574.2C15242.8,18575.1 15254.8,18575.6 15264.3,18575.6C15274.2,18575.6 15285.1,18575.1 15297.1,18574.2L15297.1,18586.6L15286.5,18586.6C15277,18586.6 15268.9,18588.4 15262.3,18592.1C15255.7,18595.7 15240.5,18608.4 15216.7,18630.3L15141.1,18699.8Z" style="fill-rule:nonzero;"></path>                        <path d="M15466.6,18712.8C15479.6,18731.4 15495.6,18753 15514.7,18777.7L15552.7,18826.9C15559.4,18835.4 15563.9,18840.2 15566.1,18841.4C15568.4,18842.5 15570.7,18843.1 15573,18843.1L15578.2,18843.1L15578.2,18855.6C15567.2,18854.7 15557.7,18854.2 15549.5,18854.2C15542,18854.2 15534.1,18854.7 15525.8,18855.6L15455.8,18761.1C15442.7,18743.7 15428.7,18726.6 15413.8,18710L15415.8,18703.3C15423.5,18704 15429.1,18704.3 15432.8,18704.3C15454.8,18704.3 15472.1,18698.6 15484.5,18687.3C15497,18676 15503.2,18660.8 15503.2,18641.8C15503.2,18624.8 15497.9,18611.5 15487.4,18602C15476.9,18592.4 15461.6,18587.6 15441.7,18587.6C15427.9,18587.6 15414,18590.2 15400,18595.3C15398.4,18616.3 15397.6,18638.7 15397.6,18662.6L15397.6,18758.1C15397.6,18804.6 15398.7,18830.4 15401,18835.5C15403.2,18840.6 15410.5,18843.1 15422.7,18843.1L15438.2,18843.1L15438.2,18855.6C15416.3,18854.7 15398.1,18854.2 15383.8,18854.2C15372.4,18854.2 15351.9,18854.7 15322.3,18855.6L15322.3,18843.1L15337.1,18843.1C15348.4,18843.1 15355.2,18840.7 15357.3,18835.7C15359.4,18830.8 15360.4,18804.8 15360.4,18757.7L15360.4,18662.6C15360.4,18621.7 15359.2,18598.8 15356.8,18593.9C15354.3,18589.1 15346.4,18586.6 15332.9,18586.6L15322.3,18586.6L15322.3,18574C15346.8,18575 15365.5,18575.6 15378.4,18575.6C15387.1,18575.6 15399.7,18575.2 15416,18574.6C15435,18573.9 15448.6,18573.6 15456.9,18573.6C15479.8,18573.6 15497.1,18576 15508.9,18580.8C15520.7,18585.6 15529.6,18592.6 15535.8,18601.7C15541.9,18610.8 15545,18621.6 15545,18634.3C15545,18652.9 15538.3,18669.3 15524.9,18683.5C15511.5,18697.8 15492.1,18707.5 15466.6,18712.8Z" style="fill-rule:nonzero;"></path>                        <path d="M15593.2,18843.1L15605.7,18843.1C15617.9,18843.1 15625.3,18840.2 15627.7,18834.2C15630.2,18828.3 15631.4,18799.9 15631.4,18749L15631.4,18722C15631.4,18669.2 15630.3,18640.1 15628.2,18634.7C15626.1,18629.3 15619.8,18626.6 15609.2,18626.6L15593.2,18626.6L15593.2,18614.2C15615.1,18615.1 15636.7,18615.6 15658.1,18615.6C15675.9,18615.6 15692,18615.1 15706.5,18614.2L15706.5,18626.6L15691.3,18626.6C15681.9,18626.6 15676.1,18627.7 15673.7,18630C15671.3,18632.2 15669.9,18637.9 15669.5,18647C15668.9,18661.1 15668.6,18686.2 15668.6,18722.3L15668.6,18750.6C15668.6,18801.9 15669.7,18830.1 15671.9,18835.3C15674.2,18840.5 15681.3,18843.1 15693.5,18843.1L15706.5,18843.1L15706.5,18855.6C15690.3,18854.7 15672.6,18854.2 15653.5,18854.2C15631.2,18854.2 15611.1,18854.7 15593.2,18855.6L15593.2,18843.1Z" style="fill-rule:nonzero;"></path>                        <g transform="matrix(1,0,0,1,0,-36.1014)">                            <path d="M15656.7,18629C15641.4,18629.3 15619.8,18626.6 15609.2,18626.6L15593.2,18626.6L15593.2,18611.2C15615.1,18612.1 15636.7,18612.6 15658.1,18612.6C15675.9,18612.6 15692,18612.1 15706.5,18611.2L15706.5,18626.6L15691.3,18626.6C15688.7,18627.2 15671.8,18628.7 15656.7,18629Z" style="fill-rule:nonzero;"></path>                        </g>                        <g transform="matrix(1,0,0,1,3,0)">                            <path d="M16000.6,18762C15998.6,18773.1 15997.6,18784.4 15997.6,18795.9C15997.6,18808 15998.6,18821.6 16000.6,18836.8C15983.1,18843.7 15963.3,18849.2 15941.2,18853.3C15919.1,18857.5 15898,18859.5 15877.8,18859.5C15846.7,18859.5 15819.4,18853.5 15795.8,18841.3C15772.3,18829.1 15754.2,18812.1 15741.5,18790.4C15728.9,18768.7 15722.5,18744.1 15722.5,18716.6C15722.5,18688.1 15729.3,18662.7 15742.9,18640.5C15756.5,18618.3 15775.4,18601 15799.7,18588.7C15823.9,18576.4 15854.7,18570.2 15891.8,18570.2C15907,18570.2 15921,18571.2 15933.8,18573.2C15946.6,18575.2 15963.2,18579.1 15983.8,18585L16000.6,18589.6C15997,18603.6 15994.2,18623.1 15992.1,18648.1L15979.8,18648.1L15979.8,18635.1C15979.8,18622.2 15978.8,18614.6 15976.7,18612.3C15972.7,18608.1 15962.2,18602.9 15945.2,18596.6C15928.2,18590.4 15908.8,18587.2 15886.9,18587.2C15848.1,18587.2 15818.5,18597.6 15797.9,18618.5C15775.5,18641.1 15764.3,18671.1 15764.3,18708.5C15764.3,18744.3 15774.4,18774.5 15794.5,18799C15818.3,18828 15850.6,18842.5 15891.6,18842.5C15913,18842.5 15936.1,18837.9 15961.1,18828.5C15961.8,18817.4 15962.2,18805.6 15962.2,18793.1C15962.2,18776.9 15962,18767.6 15961.5,18765.1C15960.9,18762.7 15960,18761.1 15958.6,18760.4C15957.2,18759.6 15950.3,18758.8 15937.9,18757.7L15914.6,18755.7L15914.6,18743.1C15944.8,18744.4 15967.2,18745 15981.8,18745C15994.5,18745 16005.4,18744.4 16014.5,18743.1L16014.5,18753L16000.6,18762Z" style="fill-rule:nonzero;"></path>                        </g>                        <path d="M16116.5,18721.3L16116.5,18769.8L16116.7,18797.6C16116.7,18815 16116.9,18827.8 16117.3,18835.8C16136.5,18837.3 16157.2,18838 16179.2,18838C16194,18838 16206.4,18837.3 16216.4,18836C16222.8,18835.2 16229.7,18833.5 16236.9,18830.9C16240.2,18819.3 16243.6,18804.8 16247,18787.4L16260.3,18787.4C16256.7,18816.2 16254.9,18835.5 16254.9,18845.1L16255.3,18854C16240.2,18855.5 16225.3,18856.2 16210.6,18856.2L16179.6,18855.6C16145.3,18854.7 16120.1,18854.2 16104,18854.2C16088.6,18854.2 16068.1,18854.7 16042.5,18855.6L16042.5,18843.1L16048.7,18843.1C16060.1,18843.1 16067.4,18842 16070.3,18839.8C16073.3,18837.5 16075.3,18832.3 16076.3,18823.9C16077.2,18815.6 16077.7,18797.3 16077.7,18769L16077.7,18660.4C16077.7,18642.6 16077.3,18628 16076.5,18616.7C16075.6,18605.3 16074.7,18598.6 16073.7,18596.4C16072.7,18594.2 16071.3,18592.6 16069.4,18591.4C16067.6,18590.2 16061.9,18589.1 16052.4,18588.2L16037.2,18586.6L16037.2,18574.4L16058.6,18574.4L16079.5,18575C16091.3,18575.4 16100.2,18575.6 16106.2,18575.6L16182.2,18574.6L16218.2,18574.4C16230.4,18574.2 16242.8,18574.8 16255.3,18575.9C16250.3,18591.5 16247.6,18611.7 16247,18636.7L16233.6,18636.7C16233.6,18622.2 16232.9,18610.1 16231.4,18600.5C16215.8,18594.7 16196.7,18591.8 16174.1,18591.8C16156,18591.8 16137.1,18592.6 16117.3,18594.1C16117.4,18606.5 16117.3,18618.9 16116.9,18631.3L16116.5,18661.8L16116.5,18701.9C16129.6,18702.7 16141.1,18703.1 16151.1,18703.1C16182.5,18703.1 16200.3,18702 16204.4,18699.9C16208.6,18697.7 16210.6,18690.9 16210.6,18679.6L16210.6,18666.7L16224.1,18666.7C16223.2,18686.6 16222.7,18702.5 16222.7,18714.4C16222.7,18726.9 16223.2,18741.7 16224.1,18758.7L16210.6,18758.7L16210.6,18747.2C16210.6,18734.6 16208.2,18726.8 16203.2,18724C16198.3,18721.1 16180.8,18719.7 16150.9,18719.7C16139.8,18719.7 16128.4,18720.3 16116.5,18721.3Z" style="fill-rule:nonzero;"></path>                        <g transform="matrix(1,0,0,1,-2,0)">                            <path d="M16430.2,18712.8C16443.1,18731.4 16459.1,18753 16478.2,18777.7L16516.2,18826.9C16522.9,18835.4 16527.4,18840.2 16529.6,18841.4C16531.9,18842.5 16534.2,18843.1 16536.6,18843.1L16541.7,18843.1L16541.7,18855.6C16530.8,18854.7 16521.2,18854.2 16513,18854.2C16505.5,18854.2 16497.6,18854.7 16489.3,18855.6L16419.3,18761.1C16406.2,18743.7 16392.3,18726.6 16377.4,18710L16379.3,18703.3C16387,18704 16392.7,18704.3 16396.3,18704.3C16418.4,18704.3 16435.6,18698.6 16448.1,18687.3C16460.5,18676 16466.7,18660.8 16466.7,18641.8C16466.7,18624.8 16461.5,18611.5 16450.9,18602C16440.4,18592.4 16425.2,18587.6 16405.2,18587.6C16391.4,18587.6 16377.5,18590.2 16363.5,18595.3C16361.9,18616.3 16361.1,18638.7 16361.1,18662.6L16361.1,18758.1C16361.1,18804.6 16362.3,18830.4 16364.5,18835.5C16366.7,18840.6 16374,18843.1 16386.3,18843.1L16401.7,18843.1L16401.7,18855.6C16379.8,18854.7 16361.7,18854.2 16347.3,18854.2C16336,18854.2 16315.5,18854.7 16285.8,18855.6L16285.8,18843.1L16300.6,18843.1C16312,18843.1 16318.7,18840.7 16320.8,18835.7C16322.9,18830.8 16324,18804.8 16324,18757.7L16324,18662.6C16324,18621.7 16322.7,18598.8 16320.3,18593.9C16317.9,18589.1 16309.9,18586.6 16296.5,18586.6L16285.8,18586.6L16285.8,18574C16310.3,18575 16329,18575.6 16342,18575.6C16350.7,18575.6 16363.2,18575.2 16379.5,18574.6C16398.5,18573.9 16412.2,18573.6 16420.5,18573.6C16443.3,18573.6 16460.6,18576 16472.4,18580.8C16484.2,18585.6 16493.2,18592.6 16499.3,18601.7C16505.4,18610.8 16508.5,18621.6 16508.5,18634.3C16508.5,18652.9 16501.8,18669.3 16488.4,18683.5C16475,18697.8 16455.6,18707.5 16430.2,18712.8Z" style="fill-rule:nonzero;"></path>                        </g>                    </g>                    <g transform="matrix(1,0,0,1,-1627.04,368.261)">                        <path d="M16689.8,18835.8C16691.9,18815.4 16693,18779.6 16693,18728.6L16693,18671.3C16693,18647.8 16692.2,18627.6 16690.6,18610.6C16689.7,18600.7 16688.5,18594.9 16687,18593.4C16685.4,18591.8 16680,18590.3 16670.6,18589L16654.8,18586.6L16654.8,18574.2C16676.6,18574.8 16691.2,18575.2 16698.7,18575.2L16751.9,18574.8L16795.2,18574C16812.6,18573.7 16830.5,18575.4 16848.8,18579.1C16867.2,18582.8 16883.8,18590.2 16898.7,18601.4C16913.6,18612.5 16924.9,18626.5 16932.7,18643.3C16940.5,18660.1 16944.4,18679.5 16944.4,18701.5C16944.4,18746.1 16929.4,18782.9 16899.4,18812.1C16869.4,18841.2 16830.2,18855.8 16781.8,18855.8L16757.5,18855.2C16733.6,18854.3 16718.5,18853.8 16712.2,18853.8C16701.5,18853.8 16687.9,18854.6 16671.4,18856.2L16671.4,18846.7L16689.8,18835.8ZM16732.5,18834.8C16750.3,18837.5 16766,18838.8 16779.6,18838.8C16816.5,18838.8 16845.2,18829.3 16865.6,18810.3C16890.3,18787.2 16902.6,18753.6 16902.6,18709.4C16902.6,18670.9 16892.4,18641.6 16871.9,18621.4C16851.4,18601.3 16821.3,18591.2 16781.8,18591.2C16767.9,18591.2 16751.5,18592.6 16732.5,18595.3C16731,18608 16730.2,18622.4 16730.2,18638.4L16730.2,18767.8C16730.2,18791.6 16731,18814 16732.5,18834.8Z" style="fill-rule:nonzero;"></path>                        <g transform="matrix(1,0,0,1,-39,0)">                            <path d="M17166.8,18760.7L17052.5,18760.7L17039.1,18792.5C17030.3,18813.6 17025.8,18826.5 17025.8,18831.3C17025.8,18834.3 17026.7,18836.5 17028.3,18837.8C17030,18839.1 17034.1,18840.2 17040.9,18841L17059.9,18843.1L17059.9,18855.6C17047.2,18854.7 17033,18854.2 17017.1,18854.2C16998.2,18854.2 16981.5,18854.7 16967.1,18855.6L16967.1,18843.1L16973,18842.9C16982.3,18842.7 16988.2,18841.7 16990.9,18840.1C16993.6,18838.4 16996.5,18834.4 16999.5,18827.9C17008.9,18808.9 17018.5,18788.4 17028.2,18766.4L17082.6,18643.2C17097.1,18610.5 17107,18586.8 17112.3,18572L17125.7,18572L17225.8,18804.8C17232.5,18820.6 17237,18830.1 17239.2,18833.3C17241.5,18836.6 17244,18838.9 17246.9,18840.3C17249.8,18841.7 17256.4,18842.6 17266.5,18843.1L17266.5,18855.6C17249.4,18854.7 17233,18854.2 17217.5,18854.2C17203,18854.2 17183.7,18854.7 17159.5,18855.6L17159.5,18843.1L17179.1,18841.9C17186.1,18841.4 17190.3,18840.7 17191.6,18839.8C17193.5,18838.3 17194.5,18836.5 17194.5,18834.2C17194.5,18831.9 17192.6,18825.7 17188.6,18815.6L17166.8,18760.7ZM17059.9,18744.4L17159.5,18744.4L17109.7,18625.4L17059.9,18744.4Z" style="fill-rule:nonzero;"></path>                        </g>                        <g transform="matrix(1,0,0,1,-45,0)">                            <path d="M17339.7,18618.9L17339.7,18755.5C17339.7,18786.6 17340.3,18808.3 17341.5,18820.6C17342.4,18829.9 17344,18835.7 17346.1,18837.7C17348.3,18839.7 17354.6,18841.2 17365,18842.1L17377.7,18843.1L17377.7,18855.6C17363.3,18854.7 17350.3,18854.2 17338.7,18854.2C17330.7,18854.2 17312.2,18854.7 17283.3,18855.6L17283.3,18843.1L17297.6,18843.1C17306.1,18843.1 17311.7,18841.9 17314.4,18839.6C17317,18837.2 17318.7,18832.5 17319.3,18825.5C17320.8,18811 17321.5,18791.3 17321.5,18766.4L17321.5,18668.1C17321.5,18649.7 17321.3,18631.4 17320.9,18613.3C17320.6,18605.7 17319.6,18600.4 17317.8,18597.6C17316.1,18594.8 17313.5,18592.2 17310,18590C17306.6,18587.7 17301.8,18586.6 17295.6,18586.6L17283.3,18586.6L17283.3,18574.2C17300.1,18575.1 17312.9,18575.6 17321.7,18575.6C17331.2,18575.6 17341.6,18575.1 17352.9,18574.2C17366,18590.1 17378.3,18605.6 17389.8,18620.7C17401.4,18635.8 17413.3,18651 17425.7,18666.3L17493.4,18749.4C17517.8,18779.2 17535.4,18799.9 17546.2,18811.5L17546.2,18684.5C17546.2,18631.4 17545.2,18602.4 17543.3,18597.4C17541.4,18592.5 17533.8,18589.3 17520.5,18588L17505.6,18586.6L17505.6,18574.2C17526.9,18575.1 17543.3,18575.6 17555.1,18575.6C17567.3,18575.6 17583.2,18575.1 17602.5,18574.2L17602.5,18586.6L17587.3,18586.6C17575,18586.6 17568,18590.7 17566.1,18598.9C17565,18604.3 17564.4,18633.2 17564.4,18685.5L17564.4,18774.7C17564.4,18798.7 17565.4,18827.4 17567.5,18860.7C17549.6,18858 17539.2,18856 17536.3,18854.7C17533.4,18853.5 17530.6,18851.4 17528,18848.5C17513.3,18832.3 17498,18814.3 17481.9,18794.5L17339.7,18618.9Z" style="fill-rule:nonzero;"></path>                        </g>                        <g transform="matrix(1,0,0,1,-49,0)">                            <path d="M17700.8,18721.3L17700.8,18769.8L17701,18797.6C17701,18815 17701.2,18827.8 17701.6,18835.8C17720.9,18837.3 17741.5,18838 17763.5,18838C17778.3,18838 17790.7,18837.3 17800.7,18836C17807.2,18835.2 17814,18833.5 17821.3,18830.9C17824.6,18819.3 17827.9,18804.8 17831.4,18787.4L17844.6,18787.4C17841,18816.2 17839.3,18835.5 17839.3,18845.1L17839.7,18854C17824.5,18855.5 17809.6,18856.2 17795,18856.2L17763.9,18855.6C17729.6,18854.7 17704.4,18854.2 17688.4,18854.2C17672.9,18854.2 17652.4,18854.7 17626.9,18855.6L17626.9,18843.1L17633,18843.1C17644.5,18843.1 17651.7,18842 17654.6,18839.8C17657.6,18837.5 17659.6,18832.3 17660.6,18823.9C17661.6,18815.6 17662.1,18797.3 17662.1,18769L17662.1,18660.4C17662.1,18642.6 17661.6,18628 17660.8,18616.7C17659.9,18605.3 17659,18598.6 17658,18596.4C17657,18594.2 17655.6,18592.6 17653.8,18591.4C17651.9,18590.2 17646.2,18589.1 17636.7,18588.2L17621.5,18586.6L17621.5,18574.4L17642.9,18574.4L17663.8,18575C17675.6,18575.4 17684.5,18575.6 17690.5,18575.6L17766.5,18574.6L17802.5,18574.4C17814.7,18574.2 17827.1,18574.8 17839.7,18575.9C17834.6,18591.5 17831.9,18611.7 17831.4,18636.7L17817.9,18636.7C17817.9,18622.2 17817.2,18610.1 17815.7,18600.5C17800.2,18594.7 17781.1,18591.8 17758.4,18591.8C17740.3,18591.8 17721.4,18592.6 17701.6,18594.1C17701.7,18606.5 17701.6,18618.9 17701.2,18631.3L17700.8,18661.8L17700.8,18701.9C17713.9,18702.7 17725.4,18703.1 17735.4,18703.1C17766.8,18703.1 17784.6,18702 17788.7,18699.9C17792.9,18697.7 17795,18690.9 17795,18679.6L17795,18666.7L17808.4,18666.7C17807.5,18686.6 17807,18702.5 17807,18714.4C17807,18726.9 17807.5,18741.7 17808.4,18758.7L17795,18758.7L17795,18747.2C17795,18734.6 17792.5,18726.8 17787.5,18724C17782.6,18721.1 17765.2,18719.7 17735.2,18719.7C17724.2,18719.7 17712.7,18720.3 17700.8,18721.3Z" style="fill-rule:nonzero;"></path>                        </g>                        <g transform="matrix(1,0,0,1,-45,0)">                            <path d="M18048.3,18587.4C18044.6,18601.1 18042.6,18619.3 18042.4,18642L18028.7,18642L18028.7,18626.2C18028.7,18615.9 18027.3,18608.9 18024.6,18605.2C18021.8,18601.5 18014.6,18597.6 18002.9,18593.5C17991.2,18589.3 17979,18587.2 17966,18587.2C17944.9,18587.2 17928.4,18592.6 17916.3,18603.2C17904.2,18613.9 17898.2,18627.6 17898.2,18644.4C17898.2,18654.9 17900.7,18664 17905.6,18671.6C17910.6,18679.2 17917.2,18684.6 17925.6,18688C17934,18691.3 17951.7,18694.3 17978.9,18696.8C18006,18699.4 18024.4,18702.9 18034,18707.3C18043.5,18711.6 18051.2,18718.6 18056.9,18728.2C18062.6,18737.9 18065.5,18749.3 18065.5,18762.4C18065.5,18788.9 18054.4,18811.8 18032.3,18830.9C18010.1,18850 17980.6,18859.5 17943.7,18859.5C17931,18859.5 17918.3,18858.3 17905.4,18855.7C17892.6,18853.1 17879.6,18849.3 17866.6,18844.3C17868.9,18828.5 17870,18808.2 17869.9,18783.4L17883.4,18783.4L17883.4,18793.3C17883.4,18806.1 17884,18814 17885.3,18817C17886.7,18820.1 17889.8,18823.3 17894.6,18826.7C17901.9,18831.9 17910.5,18835.8 17920.5,18838.5C17930.6,18841.2 17941.4,18842.5 17953,18842.5C17977.9,18842.5 17997.1,18836.7 18010.7,18824.9C18024.3,18813.2 18031.1,18798.3 18031.1,18780.2C18031.1,18769.7 18028.8,18760.8 18024.2,18753.4C18019.6,18746.1 18013.1,18740.7 18004.8,18737.1C17996.5,18733.6 17981.1,18730.9 17958.7,18729C17928.9,18726.6 17908.7,18723.1 17898,18718.3C17887.3,18713.6 17878.9,18706.1 17872.9,18695.9C17866.8,18685.7 17863.8,18673 17863.8,18657.8C17863.8,18632.1 17873.1,18611.1 17891.7,18594.7C17910.3,18578.4 17936,18570.2 17968.8,18570.2C17982,18570.2 17995.2,18571.6 18008.5,18574.5C18021.7,18577.3 18035,18581.6 18048.3,18587.4Z" style="fill-rule:nonzero;"></path>                        </g>                    </g>                </g>                <g transform="matrix(0.85175,0.0621299,-0.0621299,0.85175,2453.48,4236.77)">                    <g transform="matrix(1,0,0,1,15903,23483.2)">                        <path d="M512,98C468.687,97 428.134,108.832 386,126C343.866,143.168 265,178 265,178C265,178 259.653,318.648 260.117,436C260.58,553.352 258.156,698.827 262,711C265.844,723.173 326.307,798.408 369,831C411.693,863.592 502,929 502,929C502,929 582.341,871.263 642,831C701.659,790.737 755.196,731.855 762,708C768.804,684.145 769.268,495.832 768,429C766.732,362.168 760,182 760,182C760,182 689.084,140.81 635,125C580.916,109.19 555.313,99 512,98Z" style="fill:rgb(241,17,10);"></path>                    </g>                    <g transform="matrix(1,0,0,1,15903,23483.2)">                        <path d="M498,67L499,501C499,501 529.263,445.709 546,428C562.737,410.291 597.318,380.581 617,368C636.682,355.419 683.028,330.492 699,314C714.972,297.508 731,261 731,261C731,261 722.587,351.57 699,388C675.413,424.43 660.106,439.508 639,450C617.894,460.492 572.575,482.168 558,489C543.425,495.832 514.171,513.471 514.171,513.471C514.171,513.471 569.682,547.67 597,558C624.318,568.33 648.788,594.196 662,609C675.212,623.804 705.804,679.385 711,693C716.196,706.615 725,745 725,745C725,745 695.922,734.978 654,700C612.078,665.022 574.028,630 558,607C541.972,584 514.171,550 514.171,550L500,528L499,947L259.783,780C259.783,780 263.285,747.128 333,670C402.715,592.872 415.162,572.754 441,552C466.838,531.246 488,513.471 488,513.471C488,513.471 462.899,492.469 442,480C421.101,467.531 396.028,457.246 380,442C363.972,426.754 323.927,389.313 305,345C286.073,300.687 285.246,288.894 287,237C288.754,185.106 288.218,166.698 297,137C305.782,107.302 498,67 498,67Z" style="fill:white;"></path>                    </g>                    <g transform="matrix(1,0,0,1,15903,23483.2)">                        <path d="M204,132C194.671,348.857 194.865,562.447 201,774C201,774 218.883,809.391 282,856C345.117,902.609 393.721,937.274 441,963C488.279,988.726 506,1004 506,1004C506,1004 586.106,963.726 676,901C765.894,838.274 827,772 827,772C836.591,561.633 836.534,348.79 825,133C825,133 718.676,87.844 656,67C593.324,46.156 532.268,25.989 512,26C491.732,26.011 388.983,57.391 349,72C309.017,86.609 204,132 204,132ZM512,98C468.687,97 428.134,108.832 386,126C343.866,143.168 265,178 265,178C265,178 259.653,318.648 260.117,436C260.58,553.352 258.156,698.827 262,711C265.844,723.173 326.307,798.408 369,831C411.693,863.592 502,929 502,929C502,929 582.341,871.263 642,831C701.659,790.737 755.196,731.855 762,708C768.804,684.145 769.268,495.832 768,429C766.732,362.168 760,182 760,182C760,182 689.084,140.81 635,125C580.916,109.19 555.313,99 512,98Z"></path>                    </g>                    <g transform="matrix(1,0,0,1,15903,23483.2)">                        <path d="M512,98C468.687,97 428.134,108.832 386,126C343.866,143.168 265,178 265,178C265,178 259.653,318.648 260.117,436C260.58,553.352 258.156,698.827 262,711C265.844,723.173 326.307,798.408 369,831C411.693,863.592 502,929 502,929C502,929 582.341,871.263 642,831C701.659,790.737 755.196,731.855 762,708C768.804,684.145 769.268,495.832 768,429C766.732,362.168 760,182 760,182C760,182 689.084,140.81 635,125C580.916,109.19 555.313,99 512,98Z" style="fill:none;"></path>                    </g>                </g>            </g>        </g>    </g></svg>